<?xml version="1.0" encoding="UTF-8"?>
<svg width="752pt" height="752pt" version="1.1" viewBox="0 0 752 752" xmlns="http://www.w3.org/2000/svg">
 <path d="m177.1 219.72c-7.707 0-14.207 6.5-14.207 14.207v255.73c0 7.707 6.5 14.207 14.207 14.207h277.19c13.906 17.277 35.23 28.414 59.051 28.414 41.734 0 75.773-34.035 75.773-75.773 0-27.961-15.254-52.43-37.887-65.562v-157.02c0-7.707-6.5-14.207-14.207-14.207h-359.92zm4.7344 18.941h350.45v144.59c-6.0703-1.5742-12.391-2.5156-18.941-2.5156-6.6523 0-13.086 0.89453-19.238 2.5156l-68.965-66.297c-4.5625-3.5273-10.035-3.457-13.469 0.59375l-83.914 92.641-65.707-55.645c-3.2812-2.8203-8.5703-2.9531-11.988-0.29297l-68.227 54.16zm132.6 28.414c-20.812 0-37.887 17.074-37.887 37.887s17.074 37.887 37.887 37.887 37.887-17.074 37.887-37.887-17.074-37.887-37.887-37.887zm0 18.941c10.574 0 18.941 8.3672 18.941 18.941s-8.3672 18.941-18.941 18.941c-10.574 0-18.941-8.3672-18.941-18.941s8.3672-18.941 18.941-18.941zm104.63 51.355 55.941 53.871c-22.379 13.195-37.441 37.496-37.441 65.27 0 10.035 1.9062 19.633 5.4766 28.414h-261.21v-52.242l73.848-58.754 66.895 56.535c3.6602 3.0977 9.7383 2.7539 13.023-0.73828l83.469-92.348zm94.273 62.309c31.5 0 56.828 25.332 56.828 56.828 0 31.5-25.332 56.828-56.828 56.828-31.5 0-56.828-25.332-56.828-56.828 0-31.5 25.332-56.828 56.828-56.828zm0 14.207c-5.2305 0-9.4727 4.2422-9.4727 9.4727v23.68h-23.68c-5.2305 0-9.4727 4.2422-9.4727 9.4727s4.2422 9.4727 9.4727 9.4727h23.68v23.68c0 5.2305 4.2422 9.4727 9.4727 9.4727 5.2305 0 9.4727-4.2422 9.4727-9.4727v-23.68h23.68c5.2305 0 9.4727-4.2422 9.4727-9.4727s-4.2422-9.4727-9.4727-9.4727h-23.68v-23.68c0-5.2305-4.2422-9.4727-9.4727-9.4727z"/>
</svg>
